<!DOCTYPE svg PUBLIC "-//W3C//DTD SVG 1.1//EN" "http://www.w3.org/Graphics/SVG/1.1/DTD/svg11.dtd">
<!-- Uploaded to: SVG Repo, www.svgrepo.com, Transformed by: SVG Repo Mixer Tools -->
<svg fill="#000000" height="800px" width="800px" version="1.1" id="Layer_1" xmlns="http://www.w3.org/2000/svg" xmlns:xlink="http://www.w3.org/1999/xlink" viewBox="0 0 512 512" xml:space="preserve">
<g id="SVGRepo_bgCarrier" stroke-width="0"/>
<g id="SVGRepo_tracerCarrier" stroke-linecap="round" stroke-linejoin="round"/>
<g id="SVGRepo_iconCarrier"> <g> <g> <path d="M241.22,97.4c-12.55,0-23.823,5.544-31.52,14.304c-7.698-8.759-18.97-14.304-31.52-14.304 c-5.77,0-10.449,4.678-10.449,10.449c0,5.771,4.679,10.449,10.449,10.449c11.618,0,21.071,9.452,21.071,21.071 c0,5.771,4.679,10.449,10.449,10.449c5.77,0,10.449-4.678,10.449-10.449c0-11.619,9.453-21.071,21.071-21.071 c5.77,0,10.449-4.678,10.449-10.449C251.669,102.078,246.99,97.4,241.22,97.4z"/> </g> </g> <g> <g> <path d="M178.179,173.302c-12.55,0-23.823,5.544-31.52,14.304c-7.697-8.759-18.97-14.304-31.52-14.304 c-5.77,0-10.449,4.678-10.449,10.449c0,5.771,4.679,10.449,10.449,10.449c11.618,0,21.071,9.452,21.071,21.071 c0,5.771,4.679,10.449,10.449,10.449c5.77,0,10.449-4.678,10.449-10.449c0-11.619,9.453-21.071,21.071-21.071 c5.77,0,10.449-4.678,10.449-10.449C188.628,177.98,183.949,173.302,178.179,173.302z"/> </g> </g> <g> <g> <path d="M91.951,22.465c-25.927,0-47.02,21.093-47.02,47.02s21.093,47.02,47.02,47.02s47.02-21.093,47.02-47.02 S117.878,22.465,91.951,22.465z M91.951,95.608c-14.404,0-26.122-11.719-26.122-26.122s11.719-26.122,26.122-26.122 s26.122,11.719,26.122,26.122S106.355,95.608,91.951,95.608z"/> </g> </g> <g> <g> <path d="M424.229,76.8c-48.397,0-87.771,39.374-87.771,87.771v125.388c0,3.178,0.18,6.313,0.511,9.404h-4.691v-4.719 c0-5.771-4.679-10.449-10.449-10.449c-5.77,0-10.449,4.678-10.449,10.449v4.719H194.417v-4.719 c0-5.771-4.679-10.449-10.449-10.449c-5.77,0-10.449,4.678-10.449,10.449v4.719h-33.503c-5.77,0-10.449,4.678-10.449,10.449 v25.078v25.078c0,5.771,4.679,10.449,10.449,10.449h33.503v10.449h-33.503c-5.77,0-10.449,4.678-10.449,10.449v29.257 c0,5.771,4.679,10.449,10.449,10.449h19.919v37.616H72.098v-36.43c29.031-4.98,51.2-30.315,51.2-60.745 c0-33.994-27.656-61.649-61.649-61.649S0,337.468,0,371.461c0,30.431,22.169,55.765,51.2,60.745v36.43h-6.811 c-5.77,0-10.449,4.678-10.449,10.449s4.679,10.449,10.449,10.449h312.966c5.77,0,10.449-4.678,10.449-10.449 s-4.679-10.449-10.449-10.449h-11.494V431.02h19.94c5.77,0,10.449-4.678,10.449-10.449v-29.257 c0-5.771-4.679-10.449-10.449-10.449h-33.523v-10.449h14.629c5.77,0,10.449-4.678,10.449-10.449s-4.679-10.449-10.449-10.449 H150.465v-4.18H355.82h0.375c14.03,17.202,34.438,28.989,57.584,31.748v91.55h-18.384c-5.77,0-10.449,4.678-10.449,10.449 s4.679,10.449,10.449,10.449h72.214c5.77,0,10.449-4.678,10.449-10.449s-4.679-10.449-10.449-10.449h-32.932v-91.55 C478.164,371.902,512,334.819,512,289.959V164.571C512,116.174,472.625,76.8,424.229,76.8z M33.036,378.663L51.2,396.828v14.02 c-17.423-4.627-30.302-20.529-30.302-39.387c0-22.471,18.281-40.751,40.751-40.751s40.751,18.28,40.751,40.751 c0,18.859-12.879,34.761-30.302,39.387v-14.02l16.641-16.642c4.08-4.08,4.08-10.697,0-14.777c-4.081-4.08-10.698-4.08-14.778,0 l-12.312,12.313l-13.836-13.836c-4.08-4.08-10.695-4.08-14.778,0C28.955,367.966,28.955,374.582,33.036,378.663z M187.103,468.637 h-6.269V431.02h6.269V468.637z M297.796,468.637h-89.796V431.02h89.796V468.637z M324.963,468.637h-6.269V431.02h6.269V468.637z M355.352,401.763v8.359H150.465v-8.359H355.352z M194.417,370.416H311.38v10.449H194.417V370.416z M150.465,324.441v-4.18 h191.388c0.52,1.412,1.08,2.803,1.671,4.18H150.465z M491.102,289.959c0,33.32-24.497,61.02-56.424,66.052V312.56l27.843-29.726 c3.945-4.212,3.728-10.824-0.484-14.769c-4.21-3.944-10.824-3.728-14.77,0.483l-12.59,13.441v-33.617l27.843-29.726 c3.945-4.212,3.728-10.824-0.484-14.77c-4.21-3.945-10.824-3.728-14.77,0.483l-12.59,13.443v-18.225 c0-5.771-4.679-10.449-10.449-10.449c-5.77,0-10.449,4.678-10.449,10.449v47.05l-10.757-11.484 c-3.945-4.212-10.559-4.427-14.77-0.483c-4.212,3.944-4.428,10.558-0.484,14.769l26.011,27.769v78.815 c-31.928-5.032-56.424-32.732-56.424-66.052V164.57c0-36.874,29.999-66.873,66.873-66.873s66.873,29.999,66.873,66.873V289.959z"/> </g> </g> <g> <g> <path d="M501.551,468.636h-0.137c-5.77,0-10.449,4.678-10.449,10.449s4.679,10.449,10.449,10.449h0.137 c5.77,0,10.449-4.678,10.449-10.449S507.321,468.636,501.551,468.636z"/> </g> </g> <g> <g> <path d="M10.586,468.637h-0.137C4.679,468.637,0,473.315,0,479.086s4.679,10.449,10.449,10.449h0.137 c5.77,0,10.449-4.678,10.449-10.449S16.356,468.637,10.586,468.637z"/> </g> </g> </g>
</svg>