<?xml version="1.0" encoding="iso-8859-1"?>
<!-- Uploaded to: SVG Repo, www.svgrepo.com, Generator: SVG Repo Mixer Tools -->
<!DOCTYPE svg PUBLIC "-//W3C//DTD SVG 1.1//EN" "http://www.w3.org/Graphics/SVG/1.1/DTD/svg11.dtd">
<svg fill="#000000" height="800px" width="800px" version="1.1" id="Capa_1" xmlns="http://www.w3.org/2000/svg" xmlns:xlink="http://www.w3.org/1999/xlink" 
	 viewBox="0 0 295.643 295.643" xml:space="preserve">
<g>
	<path d="M102.898,238.557l-16.551,27.387c13.988,8.453,29.284,14.308,45.467,17.399c2.491,0.476,5.018,0.888,7.51,1.225
		l4.283-31.713c-1.92-0.259-3.868-0.576-5.789-0.943C125.377,249.534,113.628,245.041,102.898,238.557z"/>
	<path d="M177.808,43.863l6.359-31.361l-0.594-0.116c-18.446-3.524-37.501-3.254-55.689,0.777l6.926,31.242
		c13.956-3.096,28.551-3.304,42.772-0.585L177.808,43.863z"/>
	<path d="M295.526,142.067l-31.973,1.314c0.059,1.436,0.089,2.898,0.089,4.347c0,6.664-0.641,13.396-1.903,20.012
		c-1.19,6.234-2.937,12.371-5.19,18.238l29.873,11.473c2.933-7.637,5.203-15.613,6.749-23.709
		c1.641-8.588,2.472-17.341,2.472-26.014C295.643,145.844,295.603,143.939,295.526,142.067z"/>
	<path d="M219.316,234.023l18.611,26.031c15.515-11.094,28.332-24.976,38.096-41.26l-27.445-16.455
		C241.085,214.838,231.239,225.497,219.316,234.023z"/>
	<path d="M66.704,202.102l-27.481,16.396c7.512,12.589,16.913,23.846,27.945,33.456l21.02-24.129
		C79.709,220.439,72.48,211.784,66.704,202.102z"/>
	<path d="M161.811,253.738l1.209,31.977c18.992-0.718,37.333-5.284,54.514-13.571l-13.902-28.822
		C190.443,249.683,176.372,253.188,161.811,253.738z"/>
	<path d="M254.157,49.262c-13.616-13.344-29.537-23.536-47.319-30.295l-11.369,29.912c13.634,5.183,25.845,13.001,36.292,23.238
		L254.157,49.262z"/>
	<path d="M261.23,125.338l31.264-6.822c-4.049-18.552-11.748-35.8-22.885-51.267l-25.969,18.699
		C252.203,97.839,258.121,111.092,261.23,125.338z"/>
	<path d="M117.439,49.868l-12.191-29.586c-17.583,7.245-33.224,17.828-46.487,31.457l22.932,22.318
		C91.892,63.578,103.919,55.44,117.439,49.868z"/>
	<path d="M57.197,114.331c3.079-9.285,7.414-18.051,12.964-26.178L43.735,70.107c-9.227,13.512-15.877,28.361-19.833,44.233
		L0,114.346l39.057,64.694l40.167-64.715L57.197,114.331z"/>
</g>
</svg>