<svg width="51" height="38" viewBox="0 0 51 38" fill="none" xmlns="http://www.w3.org/2000/svg">
<path d="M50.3316 20.005C50.3296 19.9486 50.3086 19.8942 50.2982 19.8378C50.2815 19.7563 50.2689 19.6748 50.2335 19.6017C50.2293 19.5933 50.2314 19.5829 50.2272 19.5745L48.1378 15.3959C47.9603 15.0449 47.5988 14.8213 47.2039 14.8213H35.7146V5.41929C35.7146 5.40255 35.7063 5.39001 35.7063 5.37542C35.7042 5.3336 35.6875 5.29393 35.6812 5.25211C35.6645 5.15388 35.6478 5.05986 35.606 4.97211C35.6039 4.96584 35.6039 4.95957 35.6018 4.9533L33.5125 0.77459C33.3327 0.419369 32.9714 0.195876 32.5765 0.195876H17.951C17.5561 0.195876 17.1947 0.419468 17.0171 0.772534L14.9278 4.95125C14.9215 4.96378 14.9236 4.97838 14.9173 4.99091C14.8964 5.03685 14.8922 5.08914 14.8776 5.13713C14.8526 5.22283 14.8275 5.30843 14.8254 5.39618C14.8254 5.4045 14.8212 5.41077 14.8212 5.41919V12.732H3.32979C2.9349 12.732 2.57341 12.9556 2.39585 13.3087L0.306545 17.4874C0.302334 17.4979 0.302334 17.5083 0.298221 17.5187C0.268937 17.5835 0.258556 17.6546 0.241809 17.7256C0.227216 17.7903 0.2042 17.853 0.202144 17.9199C0.202144 17.9324 0.195876 17.9429 0.195876 17.9554V36.7595C0.195778 37.3361 0.663823 37.8041 1.24048 37.8041H49.2953C49.872 37.8041 50.34 37.3361 50.34 36.7594V20.0447C50.3399 20.0301 50.3316 20.0175 50.3316 20.005ZM35.7146 16.9107H46.5583L47.6029 19H35.7146V16.9107ZM18.5987 2.28528H31.9328L32.9775 4.37459H17.554L18.5987 2.28528ZM3.97539 14.8213H14.8211V16.9106H2.93069L3.97539 14.8213ZM48.2506 35.7148H2.28509V19H15.8658C16.4425 19 16.9105 18.532 16.9105 17.9553V6.464H33.6253V15.8556C33.6253 15.8598 33.6232 15.8618 33.6232 15.866C33.6232 15.8702 33.6253 15.8723 33.6253 15.8744V20.0446C33.6253 20.6213 34.0933 21.0893 34.67 21.0893H48.2507V35.7148H48.2506Z" fill="white" stroke="white" stroke-width="0.390625"/>
<path d="M26.7137 10.72C26.323 10.557 25.8738 10.6447 25.575 10.9456L23.4857 13.0349C23.0783 13.4423 23.0783 14.1047 23.4857 14.5121C23.8931 14.9195 24.5555 14.9195 24.9629 14.5121L25.268 14.207V22.134C25.268 22.7107 25.736 23.1787 26.3127 23.1787C26.8893 23.1787 27.3574 22.7107 27.3594 22.134V11.6873C27.3593 11.2632 27.1044 10.8829 26.7137 10.72Z" fill="white" stroke="white" stroke-width="0.390625"/>
<path d="M41.9826 31.5361C41.406 31.5361 40.9379 31.066 40.9379 30.4914C40.9379 29.9147 40.4699 29.4467 39.8932 29.4467C39.3166 29.4467 38.8485 29.9147 38.8485 30.4914C38.8485 32.2193 40.2546 33.6254 41.9825 33.6254C43.7104 33.6254 45.1165 32.2193 45.1165 30.4914C45.1165 29.6891 44.8136 28.9578 44.3163 28.4021C44.8135 27.8463 45.1165 27.1151 45.1165 26.3128C45.1165 24.5849 43.7104 23.1788 41.9825 23.1788C40.2546 23.1788 38.8485 24.5849 38.8485 26.3128C38.8485 26.8894 39.3166 27.3575 39.8932 27.3575C40.4699 27.3575 40.9379 26.8894 40.9379 26.3128C40.9379 25.7382 41.406 25.2681 41.9826 25.2681C42.5593 25.2681 43.0273 25.7382 43.0273 26.3128C43.0273 26.8874 42.5593 27.3575 41.9826 27.3575C41.406 27.3575 40.9379 27.8254 40.9379 28.4021C40.9379 28.9787 41.406 29.4468 41.9826 29.4468C42.5593 29.4468 43.0273 29.9169 43.0273 30.4915C43.0272 31.0639 42.5593 31.5361 41.9826 31.5361Z" fill="white" stroke="white" stroke-width="0.390625"/>
<path d="M11.6871 24.2192C11.6871 22.4913 10.281 21.0852 8.55311 21.0852C6.82519 21.0852 5.4191 22.4913 5.4191 24.2192C5.4191 24.7959 5.88715 25.2639 6.4638 25.2639C7.04046 25.2639 7.50851 24.7959 7.50851 24.2192C7.50851 23.6446 7.97655 23.1745 8.55321 23.1745C9.12987 23.1745 9.59781 23.6446 9.59781 24.2192C9.59781 25.2868 9.17991 26.2919 8.42569 27.0482L5.72418 29.7497C5.42537 30.0485 5.33556 30.4976 5.49853 30.8884C5.65944 31.2811 6.04179 31.5361 6.4638 31.5361H10.6425C11.2192 31.5361 11.6872 31.066 11.6872 30.4893C11.6872 29.9127 11.2192 29.4446 10.6425 29.4446H8.9856L9.90279 28.5274C11.0541 27.3741 11.6871 25.8447 11.6871 24.2192Z" fill="white" stroke="white" stroke-width="0.390625"/>
</svg>
