<?xml version="1.0" encoding="iso-8859-1"?>
<!-- Uploaded to: SVG Repo, www.svgrepo.com, Generator: SVG Repo Mixer Tools -->
<!DOCTYPE svg PUBLIC "-//W3C//DTD SVG 1.1//EN" "http://www.w3.org/Graphics/SVG/1.1/DTD/svg11.dtd">
<svg fill="#000000" version="1.1" id="Capa_1" xmlns="http://www.w3.org/2000/svg" xmlns:xlink="http://www.w3.org/1999/xlink" 
	 width="800px" height="800px" viewBox="0 0 161.841 161.841"
	 xml:space="preserve">
<g>
	<path d="M156.98,132.428l-14.808-34.362h6.16c1.211,0,2.334-0.623,2.978-1.649c0.643-1.027,0.705-2.313,0.171-3.402l-18.706-38.155
		h6.677c1.235,0,2.375-0.647,3.009-1.703c0.629-1.054,0.66-2.368,0.078-3.455L116.891,1.846C116.274,0.712,115.087,0,113.797,0
		c-1.287,0-2.479,0.712-3.087,1.846L95.673,29.891c-4.986-9.062-14.659-15.092-25.356-15.092c-12.873,0-23.854,8.27-27.576,20.206
		c-2.962-1.006-6.048-1.514-9.219-1.514c-15.962,0-28.946,12.984-28.946,28.941c0,6.731,2.277,13.09,6.483,18.235
		C6.855,85.814,4.575,92.172,4.575,98.9c0,15.961,12.984,28.944,28.946,28.944c5.246,0,10.344-1.427,14.794-4.093v34.584
		c0,1.938,1.567,3.505,3.504,3.505h12.85c1.939,0,3.504-1.567,3.504-3.505v-27.85c1.09,0.083,2.173,0.076,3.263,0.035l-0.82,1.906
		c-0.47,1.084-0.361,2.326,0.291,3.309c0.648,0.985,1.745,1.581,2.926,1.581h30.035v21.019c0,1.938,1.567,3.505,3.504,3.505h12.851
		c1.937,0,3.504-1.567,3.504-3.505v-21.019h30.036c1.181,0,2.275-0.596,2.926-1.581C157.34,134.758,157.446,133.512,156.98,132.428z
		 M65.445,123.013c-1.044-0.232-2.127,0.021-2.962,0.678c-0.83,0.664-1.317,1.677-1.317,2.737v28.404h-5.842v-35.796
		c0-0.903-0.556-1.991-1.181-2.646c-0.274-0.291-0.553-0.578-0.806-0.89c-0.605-0.749-1.495-1.222-2.457-1.29
		c-0.97-0.082-1.913,0.25-2.625,0.903c-4.054,3.689-9.286,5.722-14.731,5.722c-12.094,0-21.938-9.835-21.938-21.929
		c0-5.962,2.37-11.546,6.666-15.729c0.676-0.657,1.061-1.561,1.061-2.512c0-0.948-0.381-1.852-1.066-2.514
		c-4.295-4.171-6.661-9.756-6.661-15.718c0-12.092,9.844-21.933,21.938-21.933c3.525,0,6.913,0.826,10.071,2.464
		c1.001,0.522,2.19,0.522,3.198,0.014c1.006-0.512,1.704-1.475,1.875-2.591c1.658-10.764,10.759-18.579,21.65-18.579
		c9.822,0,18.458,6.721,21.062,16.101l-6.325,11.793c-0.585,1.086-0.555,2.4,0.077,3.455c0.629,1.056,1.775,1.705,3.004,1.705h6.434
		h0.247l-0.192,0.385c-0.003,0.003,0,0.01-0.003,0.014L76.111,93.014c-0.532,1.089-0.469,2.375,0.171,3.402
		c0.642,1.026,1.768,1.649,2.976,1.649h6.166l-10.777,25.002C71.563,123.704,68.483,123.697,65.445,123.013z M120.22,130.309
		c-1.937,0-3.504,1.567-3.504,3.505v21.025h-5.842v-21.025c0-1.938-1.567-3.505-3.505-3.505H79.154l1.211-2.812l13.597-31.549
		c0.472-1.085,0.362-2.324-0.288-3.31s-1.745-1.581-2.929-1.581h-5.866l16.029-32.7c0.007-0.007,0.011-0.01,0.014-0.017l2.663-5.435
		c0.53-1.09,0.465-2.374-0.175-3.4s-1.766-1.649-2.974-1.649H94.57h-0.574l4.243-7.914l15.558-29.021l19.793,36.936h-6.44
		c-1.204,0-2.334,0.623-2.974,1.649s-0.701,2.31-0.171,3.4l18.705,38.152h-5.865c-1.181,0-2.275,0.596-2.926,1.581
		s-0.76,2.231-0.291,3.31l14.808,34.361H120.22z"/>
</g>
</svg>