<svg width="36" height="31" viewBox="0 0 36 31" fill="none" xmlns="http://www.w3.org/2000/svg">
<path d="M13.2784 11.4476C11.8362 10.0361 9.91624 9.25934 7.87072 9.25934C7.86596 9.25934 7.86107 9.25934 7.85631 9.25934C3.62544 9.26699 0.189477 12.7152 0.196991 16.946C0.200094 18.6852 1.32813 21.2985 3.6455 24.935C5.28571 27.5089 6.89897 29.6023 6.96681 29.6901C7.18812 29.9767 7.52966 30.1443 7.89154 30.1443C7.89319 30.1443 7.89478 30.1443 7.89643 30.1443C8.26004 30.1427 8.60227 29.972 8.82213 29.6824C8.88969 29.5935 10.4947 27.4743 12.1253 24.8742C14.4281 21.202 15.546 18.5722 15.5429 16.8345C15.5392 14.7863 14.735 12.8732 13.2784 11.4476ZM7.88333 27.0153C5.51495 23.7579 2.53752 18.9881 2.53387 16.942C2.52863 13.9996 4.91818 11.6015 7.86051 11.5963C7.86389 11.5963 7.8672 11.5963 7.87065 11.5963C9.30135 11.5963 10.6412 12.1365 11.644 13.1179C12.6488 14.1012 13.2036 15.4227 13.206 16.839C13.2096 18.8868 10.2425 23.7157 7.88333 27.0153Z" fill="#43A05D" stroke="#43A05D" stroke-width="0.390624"/>
<path d="M33.8551 1.78032C32.8116 0.759137 31.4233 0.196979 29.9448 0.196979C29.9413 0.196979 29.9378 0.196979 29.9344 0.196979H29.9344C26.8734 0.202425 24.3875 2.69725 24.3929 5.75824C24.3951 7.00472 25.1747 8.83232 26.7762 11.3456C27.8906 13.0943 28.9879 14.5182 29.0341 14.5779C29.2554 14.8645 29.5968 15.0321 29.9586 15.0321C29.9603 15.0321 29.9619 15.0321 29.9635 15.0321C30.3271 15.0305 30.6694 14.8598 30.8892 14.5702C30.9352 14.5097 32.0267 13.0686 33.1343 11.3023C34.7254 8.76524 35.4978 6.92681 35.4956 5.68185C35.493 4.19855 34.9104 2.81287 33.8551 1.78032ZM29.9508 11.8856C28.399 9.69458 26.7318 6.90841 26.7297 5.7541C26.7267 3.98158 28.1661 2.53703 29.9386 2.53386C29.9407 2.53386 29.9427 2.53386 29.9447 2.53386C31.7443 2.53386 33.1555 3.91726 33.1587 5.68598C33.1607 6.84367 31.4977 9.6659 29.9508 11.8856Z" fill="#43A05D" stroke="#43A05D" stroke-width="0.390624"/>
<path d="M20.7564 28.4552C20.1115 28.456 19.5896 28.9802 19.5903 29.6252C19.592 30.2701 20.1145 30.792 20.7587 30.792C20.7595 30.792 20.7604 30.792 20.7611 30.792C21.406 30.7905 21.9288 30.2662 21.9272 29.6213C21.9264 28.9764 21.4021 28.4537 20.7564 28.4552Z" fill="#43A05D" stroke="#43A05D" stroke-width="0.390624"/>
<path d="M21.4973 18.9325C20.8748 18.7635 20.233 19.1319 20.0647 19.7551C19.8956 20.3775 20.2642 21.0194 20.8873 21.1876C20.9894 21.2156 21.0921 21.2289 21.1934 21.2289C21.7075 21.2289 22.1796 20.8862 22.3206 20.365C22.4888 19.7427 22.1204 19.1008 21.4973 18.9325Z" fill="#43A05D" stroke="#43A05D" stroke-width="0.390624"/>
<path d="M33.2867 23.2144C33.1052 22.5952 32.4564 22.2408 31.8371 22.4222C31.217 22.6038 30.8626 23.2526 31.0448 23.8719C31.1936 24.3813 31.6595 24.7124 32.1649 24.7124C32.274 24.7124 32.3846 24.6968 32.4944 24.6649C33.1137 24.4826 33.4682 23.8338 33.2867 23.2144Z" fill="#43A05D" stroke="#43A05D" stroke-width="0.390624"/>
<path d="M14.4944 28.4661C13.8495 28.4677 13.3276 28.9911 13.3283 29.6369C13.3299 30.2811 13.8526 30.803 14.4968 30.803C14.4975 30.803 14.4984 30.803 14.4991 30.803C15.1441 30.8023 15.6668 30.278 15.6652 29.6322C15.6645 28.9873 15.1402 28.4654 14.4944 28.4661Z" fill="#43A05D" stroke="#43A05D" stroke-width="0.390624"/>
<path d="M11.3318 28.4661C10.6869 28.4677 10.165 28.9911 10.1657 29.6369C10.1673 30.2811 10.69 30.803 11.3342 30.803C11.3349 30.803 11.3357 30.803 11.3365 30.803C11.9815 30.8023 12.5042 30.278 12.5026 29.6322C12.5018 28.9873 11.9775 28.4654 11.3318 28.4661Z" fill="#43A05D" stroke="#43A05D" stroke-width="0.390624"/>
<path d="M32.4562 25.5272C31.8564 25.2904 31.1772 25.5848 30.9404 26.1854C30.7044 26.7852 30.9988 27.4637 31.5986 27.7005C31.7396 27.7566 31.8845 27.7822 32.027 27.7822C32.4928 27.7822 32.9329 27.5018 33.1144 27.0422C33.3514 26.4425 33.0569 25.764 32.4562 25.5272Z" fill="#43A05D" stroke="#43A05D" stroke-width="0.390624"/>
<path d="M31.0379 28.3572C30.7092 27.8018 29.9925 27.6187 29.4371 27.9474C28.8817 28.2761 28.6987 28.9936 29.0274 29.5482C29.2463 29.9166 29.635 30.1215 30.0338 30.1215C30.2364 30.1215 30.4419 30.0686 30.6289 29.9579C31.1836 29.6284 31.3674 28.9117 31.0379 28.3572Z" fill="#43A05D" stroke="#43A05D" stroke-width="0.390624"/>
<path d="M31.0714 20.0878C30.5478 19.7107 29.8173 19.8291 29.4403 20.3526C29.0625 20.8761 29.1817 21.6059 29.7051 21.9837C29.9115 22.1325 30.1507 22.2042 30.3867 22.2042C30.7496 22.2042 31.1072 22.0359 31.3362 21.7189C31.7131 21.1954 31.5947 20.4647 31.0714 20.0878Z" fill="#43A05D" stroke="#43A05D" stroke-width="0.390624"/>
<path d="M20.3327 17.666C20.2174 17.0312 19.6091 16.6105 18.9742 16.7258C18.3394 16.8411 17.9179 17.4495 18.0341 18.0844C18.1368 18.6491 18.6284 19.044 19.1822 19.044C19.2516 19.044 19.3216 19.0378 19.3925 19.0246C20.0274 18.9092 20.4479 18.3008 20.3327 17.666Z" fill="#43A05D" stroke="#43A05D" stroke-width="0.390624"/>
<path d="M24.3125 18.9832C23.6667 18.9847 23.1448 19.509 23.1464 20.1539C23.148 20.7981 23.6706 21.32 24.3148 21.32C24.3156 21.32 24.3164 21.32 24.3171 21.32C24.9621 21.3185 25.4848 20.7942 25.4833 20.1493C25.4816 19.5035 24.9574 18.9816 24.3125 18.9832Z" fill="#43A05D" stroke="#43A05D" stroke-width="0.390624"/>
<path d="M27.4431 18.9762C26.7981 18.9778 26.2762 19.502 26.2777 20.1477C26.2785 20.7919 26.8019 21.3131 27.4462 21.3131C27.4469 21.3131 27.4478 21.3131 27.4485 21.3131C28.0934 21.3123 28.6153 20.7881 28.6138 20.1423C28.613 19.4973 28.0888 18.9754 27.4431 18.9762Z" fill="#43A05D" stroke="#43A05D" stroke-width="0.390624"/>
<path d="M27.0193 28.4436C26.3735 28.4452 25.8516 28.9694 25.8525 29.6144C25.8541 30.2593 26.3767 30.7805 27.0209 30.7805C27.0217 30.7805 27.0225 30.7805 27.0232 30.7805C27.6682 30.7797 28.1909 30.2555 28.1894 29.6105C28.1884 28.9647 27.6643 28.4428 27.0193 28.4436Z" fill="#43A05D" stroke="#43A05D" stroke-width="0.390624"/>
<path d="M23.3028 13.4192C22.6571 13.4207 22.1352 13.945 22.1367 14.5899C22.1383 15.2349 22.6609 15.756 23.3052 15.756C23.3059 15.756 23.3066 15.756 23.3075 15.756C23.9532 15.7544 24.4751 15.2302 24.4736 14.5852C24.472 13.9395 23.9478 13.4176 23.3028 13.4192Z" fill="#43A05D" stroke="#43A05D" stroke-width="0.390624"/>
<path d="M26.509 13.4192C25.8633 13.4207 25.3414 13.945 25.343 14.5899C25.3445 15.2349 25.8671 15.756 26.5114 15.756C26.5121 15.756 26.513 15.756 26.5137 15.756C27.1595 15.7544 27.6813 15.2302 27.6798 14.5852C27.6782 13.9395 27.154 13.4176 26.509 13.4192Z" fill="#43A05D" stroke="#43A05D" stroke-width="0.390624"/>
<path d="M17.6259 28.4607C16.981 28.4615 16.4582 28.9857 16.4598 29.6315C16.4606 30.2757 16.9833 30.7976 17.6275 30.7976C17.6283 30.7976 17.6291 30.7976 17.6298 30.7976C18.2756 30.796 18.7975 30.2726 18.7959 29.6268C18.7951 28.9819 18.2709 28.4592 17.6259 28.4607Z" fill="#43A05D" stroke="#43A05D" stroke-width="0.390624"/>
<path d="M21.2323 14.4341C20.853 13.9115 20.1223 13.7961 19.6004 14.1755C19.6004 14.1747 19.6004 14.1747 19.6004 14.1747C19.0785 14.5541 18.9625 15.2847 19.3418 15.8074C19.57 16.1222 19.9268 16.2889 20.2882 16.2889C20.5258 16.2889 20.7665 16.2164 20.9737 16.0661C21.4956 15.6867 21.6116 14.956 21.2323 14.4341Z" fill="#43A05D" stroke="#43A05D" stroke-width="0.390624"/>
<path d="M23.8877 28.4498C23.2429 28.4506 22.7201 28.9748 22.7217 29.6198C22.7224 30.2647 23.2451 30.7866 23.8901 30.7866C23.8909 30.7866 23.8908 30.7866 23.8917 30.7866C24.5375 30.785 25.0594 30.2608 25.0585 29.6158C25.0569 28.9702 24.5328 28.4483 23.8877 28.4498Z" fill="#43A05D" stroke="#43A05D" stroke-width="0.390624"/>
<path d="M29.9453 7.61409C30.7007 7.61409 31.3131 7.0017 31.3131 6.24627C31.3131 5.49084 30.7007 4.87845 29.9453 4.87845C29.1899 4.87845 28.5775 5.49084 28.5775 6.24627C28.5775 7.0017 29.1899 7.61409 29.9453 7.61409Z" fill="#43A05D" stroke="#43A05D" stroke-width="0.390624"/>
<path d="M7.86973 18.8919C8.79555 18.8919 9.54607 18.1414 9.54607 17.2155C9.54607 16.2897 8.79555 15.5392 7.86973 15.5392C6.94391 15.5392 6.19339 16.2897 6.19339 17.2155C6.19339 18.1414 6.94391 18.8919 7.86973 18.8919Z" fill="#43A05D" stroke="#43A05D" stroke-width="0.390624"/>
</svg>
