<?xml version="1.0" encoding="iso-8859-1"?>
<!-- Uploaded to: SVG Repo, www.svgrepo.com, Generator: SVG Repo Mixer Tools -->
<!DOCTYPE svg PUBLIC "-//W3C//DTD SVG 1.1//EN" "http://www.w3.org/Graphics/SVG/1.1/DTD/svg11.dtd">
<svg fill="#000000" height="800px" width="800px" version="1.1" id="Capa_1" xmlns="http://www.w3.org/2000/svg" xmlns:xlink="http://www.w3.org/1999/xlink" 
	 viewBox="0 0 337.814 337.814" xml:space="preserve">
<path d="M335.726,238.628c-3.304-6.526-9.997-10.643-17.313-10.643h-13.178V42.625c0-15.86-12.857-28.718-28.72-28.718H28.72
	C12.859,13.907,0,26.764,0,42.625v252.564c0,15.86,12.859,28.718,28.72,28.718h145.077c15.862,0,28.721-12.857,28.721-28.718
	c0-15.86-12.858-28.719-28.721-28.719H57.437V71.343h190.361v156.642h-13.18c-7.315,0-14.007,4.116-17.308,10.643
	c-3.304,6.526-2.652,14.357,1.681,20.248l41.898,56.979c3.655,4.973,9.457,7.909,15.627,7.909c6.174,0,11.975-2.937,15.628-7.909
	l41.898-56.979C338.376,252.984,339.027,245.154,335.726,238.628z"/>
</svg>