<svg width="24" height="30" viewBox="0 0 24 30" fill="none" xmlns="http://www.w3.org/2000/svg">
<path d="M7.49989 21V19.5H1.49989L1.49989 21C1.49989 22.657 2.84286 24 4.49989 24C6.15692 24 7.49989 22.657 7.49989 21ZM19.4999 30C21.1569 30 22.4999 28.657 22.4999 27V25.5H16.4999V27C16.4999 28.657 17.8429 30 19.4999 30ZM13.4999 14.1816C13.4999 15.818 14.1149 17.7516 14.9999 19.0908C15.7677 20.2528 16.4999 21.1777 16.4999 24H22.4999L23.2485 21.3033C23.5897 20.0747 23.8635 18.8184 23.954 17.5387C24.0622 16.0064 23.9854 14.4637 23.6633 12.9647C22.5608 7.83281 20.1196 6 17.9999 6C14.9999 6 13.4999 9.94594 13.4999 14.1816ZM0.33692 6.96469C0.0148883 8.46375 -0.0624555 10.0064 0.0462945 11.5387C0.136763 12.8184 0.410513 14.0747 0.751294 15.3033L1.49989 18H7.49989C7.49989 15.1781 8.23208 14.2528 8.99989 13.0908C9.88489 11.7516 10.4999 9.81797 10.4999 8.18156C10.4999 3.94594 8.99989 0 5.99989 0C3.8802 0 1.43895 1.83281 0.33692 6.96469Z" fill="black"/>
</svg>
