<svg width="31" height="29" viewBox="0 0 31 29" fill="none" xmlns="http://www.w3.org/2000/svg">
<path d="M0.5 13.9075C0.5 14.5239 0.987998 14.8963 1.59161 14.8963C1.96405 14.8963 2.25939 14.7166 2.51627 14.4597L15.0505 3.04279C15.1917 2.90153 15.3459 2.85013 15.5128 2.85013C15.6669 2.85013 15.8082 2.90153 15.9622 3.04279L28.4837 14.4597C28.7533 14.7166 29.0487 14.8963 29.4082 14.8963C30.0118 14.8963 30.5 14.5239 30.5 13.9075C30.5 13.5222 30.3587 13.2782 30.1147 13.0599L25.6711 9.01449V1.42465C25.6711 0.859561 25.3115 0.5 24.7466 0.5H23.0641C22.5119 0.5 22.1266 0.859561 22.1266 1.42465V5.79105L17.041 1.14213C16.5916 0.718301 16.0393 0.512822 15.4999 0.512822C14.9606 0.512822 14.4212 0.718301 13.9589 1.14213L0.885259 13.0599C0.654136 13.2782 0.5 13.5222 0.5 13.9075ZM4.17292 24.6823C4.17292 26.4674 5.25171 27.5076 7.0625 27.5076H12.2636V18.3766C12.2636 17.7859 12.6618 17.4006 13.2526 17.4006H17.7859C18.3766 17.4006 18.762 17.7859 18.762 18.3766V27.5076H23.9502C25.761 27.5076 26.827 26.4674 26.827 24.6823V15.2816L15.9238 5.45713C15.7825 5.32869 15.6284 5.26453 15.4743 5.26453C15.333 5.26453 15.1917 5.32869 15.0376 5.47001L4.17292 15.3458V24.6823Z" fill="#43A05D" stroke="#43A05D"/>
</svg>
