<svg width="30" height="30" viewBox="0 0 30 30" fill="none" xmlns="http://www.w3.org/2000/svg">
<path fill-rule="evenodd" clip-rule="evenodd" d="M15 15C11.6752 15 8.97144 12.309 8.97144 8.99998C8.97144 5.69098 11.6752 2.99998 15 2.99998C18.3248 2.99998 21.0286 5.69098 21.0286 8.99998C21.0286 12.309 18.3248 15 15 15ZM20.6638 16.0094C23.0557 14.0939 24.4498 10.9964 23.9374 7.6049C23.342 3.6704 20.0535 0.521965 16.0836 0.0629653C10.6052 -0.571535 5.95716 3.67348 5.95716 8.99998C5.95716 11.835 7.27741 14.3609 9.33616 16.0094C4.27819 17.9009 0.585695 22.3425 0.0069511 28.3365C-0.0774479 29.223 0.617351 30 1.51259 30C2.27973 30 2.93383 29.424 3.00165 28.6635C3.60602 21.969 8.75592 18 15 18C21.2441 18 26.394 21.969 26.9984 28.6635C27.0662 29.424 27.7203 30 28.4874 30C29.3827 30 30.0774 29.223 29.993 28.3365C29.4143 22.3425 25.7218 17.9009 20.6638 16.0094Z" fill="white"/>
</svg>
