<svg width="50" height="54" viewBox="0 0 50 54" fill="none" xmlns="http://www.w3.org/2000/svg">
<path fill-rule="evenodd" clip-rule="evenodd" d="M49.6037 9.897C49.2193 9.46574 48.6256 9.28447 48.0599 9.42199C36.4442 12.3283 30.6191 8.89386 24.9878 5.57509C19.3814 2.27812 13.6002 -1.12505 3.125 2.87501V0H0V53.1256H3.12503V6.28133C12.8908 2.15939 17.5721 4.83443 23.4003 8.26884C28.8191 11.4595 34.9067 15.0502 45.863 13.0877C41.1348 23.4784 35.1848 23.6815 27.7972 23.9378C21.3284 24.1597 13.997 24.4159 6.70633 31.7066L8.91575 33.9192C15.3377 27.4972 21.7284 27.2785 27.9066 27.0597C35.9535 26.7816 44.2724 26.494 49.9006 11.4876C50.1037 10.9439 49.9912 10.3314 49.6037 9.897Z" fill="#333333"/>
</svg>
