<svg width="21" height="33" viewBox="0 0 21 33" fill="none" xmlns="http://www.w3.org/2000/svg">
<path d="M20.2966 0.196293H0.196293V4.21637H0.87156C0.870413 4.25579 0.866401 4.29407 0.866401 4.33291V7.25962C0.866401 9.32879 1.72273 11.3054 3.23203 12.7198L5.89081 15.213C6.10441 15.414 6.22669 15.6934 6.22669 15.9876V17.189C6.22669 17.4832 6.10441 17.7631 5.89081 17.9642L3.23203 20.4573C1.72279 21.8718 0.866401 23.8478 0.866401 25.9176V28.7836H0.196293V32.8037H20.2967V28.7836H19.626V25.9176C19.626 23.8478 18.7697 21.8718 17.2609 20.4573L14.6022 17.9642C14.388 17.7631 14.2663 17.4832 14.2663 17.189V15.9876C14.2663 15.6934 14.388 15.414 14.6011 15.213L17.261 12.7198C18.7697 11.3054 19.6261 9.32879 19.6261 7.25962V4.33291C19.6261 4.29407 19.6227 4.25579 19.621 4.21637H20.2967V0.196293H20.2966ZM12.5913 15.9876V17.189C12.5913 17.9459 12.9043 18.6692 13.4562 19.1856L16.115 21.6787C17.2861 22.7766 17.951 24.3117 17.951 25.9176V28.7836H2.54135V25.9176C2.54135 24.3117 3.2063 22.7766 4.37743 21.6792L7.03621 19.1856C7.58799 18.6692 7.90113 17.9459 7.90113 17.189V15.9876C7.90113 15.2306 7.58805 14.508 7.03621 13.9904L4.37743 11.4973C3.20637 10.3999 2.54135 8.86541 2.54135 7.25962V4.33291C2.54135 4.29292 2.5488 4.25579 2.55333 4.21637H17.939C17.9436 4.25579 17.951 4.29292 17.951 4.33291V7.25962C17.951 8.86547 17.286 10.3999 16.1149 11.4973L13.4562 13.9904C12.9043 14.508 12.5913 15.2306 12.5913 15.9876Z" fill="white" stroke="white" stroke-width="0.390625"/>
</svg>
