<svg width="22" height="30" viewBox="0 0 22 30" fill="none" xmlns="http://www.w3.org/2000/svg">
<path d="M10.9999 17.4379L11.8446 16.7903C11.6433 16.5275 11.331 16.3735 10.9999 16.3735C10.669 16.3735 10.3567 16.5275 10.1552 16.7903L10.9999 17.4379ZM6.58481 19.6079L6.58808 18.5434C6.58061 18.5434 6.57316 18.5434 6.5657 18.5436L6.58481 19.6079ZM5.9561 8.78919L6.06038 9.84848C6.40195 9.81486 6.70634 9.61859 6.87792 9.32135C7.04952 9.02411 7.06726 8.66237 6.92557 8.34977L5.9561 8.78919ZM16.0438 8.78919L15.0744 8.34977C14.9327 8.66237 14.9505 9.02411 15.122 9.32135C15.2936 9.61859 15.598 9.81486 15.9396 9.84848L16.0438 8.78919ZM15.4151 19.6079L15.4343 18.5436C15.4269 18.5434 15.4194 18.5434 15.4118 18.5434L15.4151 19.6079ZM12.0643 17.4379C12.0643 16.85 11.5879 16.3735 10.9999 16.3735C10.4121 16.3735 9.93552 16.85 9.93552 17.4379H12.0643ZM9.93552 28.1231C9.93552 28.711 10.4121 29.1875 10.9999 29.1875C11.5879 29.1875 12.0643 28.711 12.0643 28.1231H9.93552ZM9.93552 17.4379C9.93552 18.0257 10.4121 18.5023 10.9999 18.5023C11.5879 18.5023 12.0643 18.0257 12.0643 17.4379H9.93552ZM12.0643 14.6193C12.0643 14.0315 11.5879 13.5549 10.9999 13.5549C10.4121 13.5549 9.93552 14.0315 9.93552 14.6193H12.0643ZM12.0643 10.383C12.0643 9.79511 11.5879 9.31856 10.9999 9.31856C10.4121 9.31856 9.93552 9.79511 9.93552 10.383H12.0643ZM9.93552 11.8022C9.93552 12.39 10.4121 12.8666 10.9999 12.8666C11.5879 12.8666 12.0643 12.39 12.0643 11.8022H9.93552ZM11.6386 12.6537C12.1089 12.301 12.2043 11.6338 11.8515 11.1635C11.4988 10.6932 10.8316 10.5979 10.3613 10.9507L11.6386 12.6537ZM7.52291 13.0795C7.05263 13.4321 6.95731 14.0993 7.31003 14.5696C7.66275 15.04 8.32996 15.1352 8.80015 14.7825L7.52291 13.0795ZM12.0643 11.8022C12.0643 11.2143 11.5879 10.7378 10.9999 10.7378C10.4121 10.7378 9.93552 11.2143 9.93552 11.8022H12.0643ZM9.93552 14.6193C9.93552 15.2072 10.4121 15.6837 10.9999 15.6837C11.5879 15.6837 12.0643 15.2072 12.0643 14.6193H9.93552ZM11.4004 13.6331C10.8557 13.412 10.2348 13.6743 10.0137 14.219C9.79261 14.7637 10.0549 15.3844 10.5996 15.6055L11.4004 13.6331ZM14.1476 17.046C14.6923 17.2671 15.3131 17.0049 15.5342 16.4602C15.7554 15.9155 15.4932 15.2947 14.9485 15.0736L14.1476 17.046ZM10.1552 16.7903C9.30496 17.8993 7.98559 18.5477 6.58808 18.5434L6.58153 20.6723C8.64347 20.6787 10.5901 19.7218 11.8446 18.0855L10.1552 16.7903ZM6.5657 18.5436C4.22693 18.5856 2.27205 16.774 2.13634 14.4388L0.0110998 14.5623C0.213096 18.0381 3.12282 20.7346 6.60393 20.6721L6.5657 18.5436ZM2.13634 14.4388C2.00062 12.1036 3.73251 10.0777 6.06038 9.84848L5.85182 7.7299C2.38691 8.07101 -0.190883 11.0865 0.0110998 14.5623L2.13634 14.4388ZM6.92557 8.34977C6.67425 7.7953 6.54452 7.19347 6.54507 6.5847L4.41625 6.58277C4.41542 7.49531 4.60991 8.39746 4.98662 9.22861L6.92557 8.34977ZM6.54507 6.5847C6.54507 4.12432 8.53958 2.12882 10.9999 2.12882V0C7.36389 0 4.41625 2.94667 4.41625 6.58277L6.54507 6.5847ZM10.9999 2.12882C13.4604 2.12882 15.4548 4.12335 15.4548 6.58373H17.5837C17.5837 2.94764 14.6361 0 10.9999 0V2.12882ZM15.4548 6.58373C15.4554 7.1925 15.3257 7.7953 15.0744 8.34977L17.0133 9.22861C17.3901 8.39746 17.5845 7.49627 17.5837 6.58373H15.4548ZM15.9396 9.84848C18.2674 10.0777 19.9993 12.1036 19.8636 14.4388L21.9889 14.5623C22.1909 11.0865 19.613 8.07101 16.1481 7.7299L15.9396 9.84848ZM19.8636 14.4388C19.728 16.774 17.773 18.5856 15.4343 18.5436L15.3961 20.6721C18.8771 20.7346 21.7868 18.0381 21.9889 14.5623L19.8636 14.4388ZM15.4118 18.5434C14.0143 18.5477 12.695 17.8993 11.8446 16.7903L10.1552 18.0855C11.4098 19.7218 13.3565 20.6787 15.4184 20.6723L15.4118 18.5434ZM9.93552 17.4379V28.1231H12.0643V17.4379H9.93552ZM12.0643 17.4379V14.6193H9.93552V17.4379H12.0643ZM9.93552 10.383V11.8022H12.0643V10.383H9.93552ZM10.3613 10.9507L7.52291 13.0795L8.80015 14.7825L11.6386 12.6537L10.3613 10.9507ZM9.93552 11.8022V14.6193H12.0643V11.8022H9.93552ZM10.5996 15.6055L14.1476 17.046L14.9485 15.0736L11.4004 13.6331L10.5996 15.6055Z" fill="black"/>
</svg>
