<svg width="126" height="30" viewBox="0 0 126 30" fill="none" xmlns="http://www.w3.org/2000/svg">
<path d="M15.0691 9.09736C15.6021 9.63037 16.4663 9.63037 16.9993 9.09736C17.5323 8.56437 17.5323 7.70022 16.9993 7.16721L10.6316 0.799494C9.56558 -0.266497 7.8373 -0.266499 6.77124 0.799494L0.3997 7.17109C-0.133265 7.70408 -0.133265 8.56825 0.3997 9.10124C0.932663 9.63424 1.79687 9.63424 2.32983 9.10124L7.33341 4.09775L7.33341 28.6352C7.33341 29.389 7.94444 30 8.69823 30C9.45189 30 10.0631 29.389 10.0631 28.6352L10.0631 4.09122L15.0691 9.09736Z" fill="#0F0F0F"/>
<path d="M110.43 20.9026C109.897 20.3696 109.033 20.3696 108.5 20.9026C107.967 21.4356 107.967 22.2998 108.5 22.8328L114.868 29.2005C115.934 30.2665 117.662 30.2665 118.728 29.2005L125.099 22.8289C125.632 22.2959 125.632 21.4318 125.099 20.8988C124.566 20.3658 123.702 20.3658 123.169 20.8988L118.166 25.9022V1.36482C118.166 0.611031 117.555 0 116.801 0C116.047 0 115.436 0.611031 115.436 1.36482V25.9088L110.43 20.9026Z" fill="#0F0F0F"/>
</svg>
