<svg width="18" height="29" viewBox="0 0 18 29" fill="none" xmlns="http://www.w3.org/2000/svg">
<path fill-rule="evenodd" clip-rule="evenodd" d="M8.33336 1.99994C7.04473 1.99994 6.00009 3.04458 6.00009 4.33321C6.00009 5.62184 7.04473 6.66647 8.33336 6.66647C9.62199 6.66647 10.6666 5.62184 10.6666 4.33321C10.6666 3.04458 9.62199 1.99994 8.33336 1.99994ZM4.0001 4.33321C4.0001 1.94004 5.94009 0 8.33336 0C10.7265 0 12.6666 1.94004 12.6666 4.33321C12.6666 6.72638 10.7265 8.66641 8.33336 8.66641C5.94009 8.66641 4.0001 6.72638 4.0001 4.33321ZM9.70372 12.6706C9.65292 12.667 9.58932 12.6663 9.35973 12.6663H7.90497L7.78337 13.8816C7.55138 16.2021 7.47072 17.1346 7.67804 18.0169C7.88524 18.8992 8.37282 19.6981 9.61399 21.6724L13.047 27.1336C13.3409 27.6012 13.2001 28.2185 12.7326 28.5125C12.265 28.8064 11.6477 28.6656 11.3538 28.1981L7.9207 22.7368C7.88804 22.6849 7.85577 22.6335 7.82377 22.5827C6.71074 20.8126 6.02383 19.7204 5.73103 18.4743C5.43824 17.2282 5.56691 15.9443 5.7753 13.8639C5.7813 13.8041 5.7873 13.7437 5.79343 13.6827L5.8949 12.6675C5.22678 12.671 4.73242 12.6839 4.33335 12.7323C3.83042 12.7934 3.59586 12.8996 3.42969 13.0328C3.26353 13.1661 3.10895 13.3721 2.94026 13.8499C2.76251 14.3533 2.60942 15.0342 2.38159 16.0595L1.97634 17.8831C1.85655 18.4221 1.32238 18.7621 0.783259 18.6423C0.244142 18.5225 -0.0957814 17.9884 0.0240284 17.4492L0.442282 15.567C0.65361 14.616 0.831511 13.8153 1.05444 13.1839C1.291 12.5139 1.61325 11.9261 2.17827 11.4729C2.74331 11.0196 3.38708 10.8325 4.09241 10.747C4.75709 10.6663 5.57731 10.6663 6.55154 10.6664H9.35973C9.37079 10.6664 9.38173 10.6664 9.39253 10.6664C9.57399 10.6663 9.71492 10.6663 9.84678 10.6757C11.3321 10.7822 12.6054 11.7765 13.069 13.1915C13.11 13.3171 13.1441 13.4539 13.1881 13.6297L13.1961 13.6617C13.2709 13.9611 13.2932 14.046 13.3139 14.1053C13.5941 14.9134 14.4406 15.3781 15.2729 15.1808C15.3341 15.1664 15.4177 15.1394 15.7103 15.042L16.6835 14.7176C17.2074 14.5429 17.7737 14.8261 17.9484 15.35C18.1231 15.8739 17.8399 16.4402 17.3159 16.6148L16.3429 16.9392C16.3282 16.944 16.3138 16.949 16.2997 16.9536C16.0703 17.0302 15.8942 17.0888 15.7343 17.1268C13.9035 17.561 12.0411 16.5386 11.4243 14.7609C11.3705 14.6056 11.3255 14.4256 11.267 14.1909C11.2633 14.1765 11.2597 14.1617 11.2559 14.1468C11.2002 13.9241 11.1842 13.8625 11.1683 13.8141C10.9577 13.1709 10.3789 12.719 9.70372 12.6706ZM5.55477 20.8341C6.01423 21.1403 6.13849 21.7612 5.8321 22.2207L1.83221 28.2205C1.52586 28.6801 0.905015 28.8042 0.445509 28.4978C-0.0140109 28.1916 -0.13818 27.5707 0.168157 27.1112L4.16804 21.1114C4.47439 20.6518 5.09519 20.5277 5.55477 20.8341Z" fill="black"/>
</svg>
