<svg width="47" height="47" viewBox="0 0 47 47" fill="none" xmlns="http://www.w3.org/2000/svg">
<path d="M47 22.8078C46.9848 22.5232 46.8702 22.2532 46.6767 22.0457C46.4831 21.8381 46.223 21.7065 45.9425 21.674L43.0457 21.2007C42.9154 21.1791 42.7955 21.1156 42.7039 21.0196C42.6122 20.9236 42.5538 20.8003 42.5373 20.668C42.4819 20.3087 42.4243 19.9358 42.3452 19.5822C42.3197 19.4536 42.3347 19.3201 42.3879 19.2005C42.4412 19.0809 42.5301 18.981 42.6423 18.9149L45.216 17.4721C45.4716 17.3405 45.6704 17.1188 45.7745 16.849C45.8787 16.5791 45.881 16.2801 45.781 16.0087L45.3347 14.7654C45.2368 14.4931 45.0429 14.2667 44.79 14.1297C44.5372 13.9927 44.2431 13.9547 43.9642 14.0229L41.0776 14.5932C40.9485 14.6166 40.8154 14.5983 40.6972 14.5407C40.5791 14.4831 40.4821 14.3893 40.42 14.2727C40.2517 13.9544 40.0686 13.6305 39.8777 13.3123C39.8084 13.1989 39.7759 13.0665 39.7848 12.9335C39.7937 12.8006 39.8436 12.6738 39.9274 12.5709L41.8481 10.3319C42.043 10.1201 42.155 9.84395 42.1631 9.55495C42.1712 9.26595 42.0749 8.98385 41.8922 8.76127L41.0538 7.74499C40.8715 7.52193 40.6136 7.37512 40.3302 7.33298C40.0467 7.29083 39.7579 7.35636 39.5196 7.51687L36.9922 9.0487C36.8801 9.11648 36.7494 9.14608 36.6194 9.13314C36.4895 9.12021 36.367 9.06541 36.2702 8.97684C35.9912 8.72933 35.711 8.49095 35.4376 8.27081C35.3348 8.18893 35.2605 8.07612 35.2256 7.94875C35.1907 7.82138 35.1968 7.68608 35.2432 7.56249L36.2894 4.77942C36.4034 4.51387 36.4167 4.21533 36.3269 3.94049C36.2372 3.66566 36.0505 3.43369 35.8025 3.28865L34.6636 2.6214C34.4152 2.47682 34.1228 2.42981 33.8422 2.48937C33.5616 2.54893 33.3126 2.71087 33.1429 2.94419L31.2957 5.28243C31.2295 5.3846 31.13 5.46016 31.0145 5.496C30.8989 5.53183 30.7745 5.52568 30.663 5.47861C30.5929 5.4501 30.0111 5.20943 29.558 5.05659C29.4338 5.0157 29.3257 4.93574 29.2497 4.82841C29.1737 4.72107 29.1336 4.59199 29.1355 4.46005L29.1796 1.4865C29.1953 1.19615 29.1057 0.909959 28.9274 0.681527C28.7492 0.453094 28.4946 0.298084 28.2113 0.245522L26.9177 0.0174012C26.6358 -0.0317577 26.3459 0.0240573 26.1017 0.174474C25.8575 0.324891 25.6758 0.559681 25.5902 0.835214L24.6298 3.66505C24.5868 3.79108 24.5046 3.8997 24.3955 3.97473C24.2864 4.04975 24.1562 4.08716 24.0242 4.08137H22.9227C22.7921 4.08356 22.664 4.04436 22.5566 3.96927C22.4492 3.89418 22.3678 3.78699 22.3239 3.66277L21.3681 0.848901C21.284 0.571356 21.1026 0.334276 20.8578 0.182057C20.613 0.0298381 20.3216 -0.0270793 20.0383 0.0219637L18.7435 0.250084C18.4618 0.301987 18.2084 0.455375 18.0303 0.68174C17.8522 0.908105 17.7616 1.19205 17.7753 1.4808L17.8205 4.46461C17.8214 4.59854 17.7794 4.72917 17.7008 4.83707C17.6222 4.94497 17.5113 5.02436 17.3844 5.06343C17.1268 5.16495 16.5641 5.38052 16.3099 5.47747C16.084 5.55959 15.8365 5.46949 15.632 5.23794L13.795 2.95674C13.6266 2.72353 13.3791 2.56104 13.0997 2.50024C12.8203 2.43945 12.5285 2.4846 12.2799 2.6271L11.1433 3.29207C10.8925 3.43738 10.7039 3.67126 10.6138 3.94863C10.5237 4.22599 10.5384 4.52722 10.6552 4.79425L11.7003 7.57048C11.7459 7.69433 11.7519 7.82949 11.7174 7.95695C11.683 8.08441 11.6098 8.19777 11.5082 8.28107C11.2337 8.50919 10.9524 8.73732 10.6722 8.99053C10.576 9.0784 10.4544 9.13289 10.3253 9.14603C10.1963 9.15916 10.0664 9.13025 9.95475 9.06353L7.45675 7.50204C7.21696 7.34428 6.92834 7.2804 6.64516 7.32241C6.36199 7.36442 6.10378 7.50943 5.91908 7.73016L5.08302 8.7453C4.89748 8.96626 4.79916 9.24853 4.80688 9.5381C4.81459 9.82767 4.92779 10.1042 5.12483 10.3148L7.05567 12.5504C7.1413 12.6512 7.19249 12.7772 7.20165 12.9097C7.21081 13.0422 7.17745 13.1742 7.10651 13.286C6.91331 13.5963 6.72915 13.9225 6.56194 14.2487C6.49939 14.3661 6.40163 14.4604 6.28269 14.5182C6.16375 14.576 6.02974 14.5942 5.89987 14.5704L3.01773 14.008C2.73868 13.9401 2.44461 13.9782 2.19163 14.1151C1.93865 14.2521 1.74447 14.4783 1.64615 14.7506L1.19423 15.9916C1.09408 16.2633 1.09629 16.5627 1.20043 16.8329C1.30458 17.1031 1.5034 17.3253 1.75913 17.4572L4.33283 18.9001C4.44857 18.9646 4.54038 19.0653 4.59439 19.1872C4.64841 19.309 4.66169 19.4452 4.63223 19.5753L4.60624 19.7168C4.54636 20.0361 4.49326 20.3384 4.44016 20.66C4.4222 20.7906 4.36378 20.9122 4.27328 21.0072C4.18278 21.1023 4.06482 21.166 3.93627 21.1893L1.03266 21.6626C0.749022 21.6981 0.487837 21.8365 0.297829 22.052C0.107822 22.2675 0.00196979 22.5455 1.9264e-05 22.834V24.1549C-0.00163486 24.4447 0.103289 24.7248 0.294475 24.941C0.48566 25.1572 0.749506 25.294 1.03492 25.3251L3.93627 25.7973C4.06664 25.8187 4.18664 25.8822 4.2783 25.9782C4.36995 26.0742 4.42833 26.1977 4.44468 26.33C4.50004 26.6904 4.55766 27.0623 4.63675 27.4158C4.66223 27.5444 4.6473 27.6779 4.59402 27.7975C4.54075 27.9171 4.45181 28.017 4.33961 28.0831L1.76704 29.5282C1.51148 29.6598 1.31272 29.8815 1.20856 30.1513C1.1044 30.4212 1.10211 30.7202 1.20213 30.9916L1.65406 32.2349C1.75215 32.5071 1.94612 32.7332 2.19891 32.8702C2.4517 33.0072 2.74561 33.0453 3.02451 32.9774L5.91117 32.4128C6.04025 32.3894 6.17338 32.4077 6.2915 32.4653C6.40961 32.5229 6.50665 32.6167 6.56872 32.7333C6.73819 33.0527 6.92122 33.3766 7.11103 33.6937C7.18071 33.807 7.21339 33.9395 7.20447 34.0725C7.19555 34.2055 7.14548 34.3324 7.06132 34.4351L5.14064 36.6753C4.94355 36.8851 4.82906 37.1603 4.81866 37.4492C4.80826 37.7382 4.90266 38.021 5.08415 38.2447L5.92134 39.261C6.10371 39.4841 6.36158 39.6309 6.64501 39.673C6.92845 39.7152 7.21729 39.6496 7.45562 39.4891L9.983 37.9573C10.0951 37.8895 10.2257 37.8599 10.3557 37.8729C10.4857 37.8858 10.6082 37.9406 10.7049 38.0292C10.9851 38.2767 11.2698 38.5151 11.5376 38.7352C11.6404 38.8171 11.7146 38.9299 11.7496 39.0572C11.7845 39.1846 11.7783 39.3199 11.7319 39.4435L10.6857 42.2266C10.5718 42.4921 10.5585 42.7907 10.6482 43.0655C10.738 43.3403 10.9246 43.5723 11.1727 43.7173L12.3149 44.3835C12.563 44.5281 12.8552 44.5752 13.1356 44.5159C13.416 44.4565 13.6649 44.2949 13.8345 44.0618L15.7043 41.7407C15.8614 41.5434 16.1111 41.4555 16.2964 41.5308C16.6884 41.6951 16.9517 41.7874 17.4183 41.9448C17.5426 41.9858 17.6507 42.0658 17.7268 42.1731C17.803 42.2804 17.8434 42.4094 17.8419 42.5414L17.7967 45.5127C17.7815 45.8029 17.8713 46.0888 18.0495 46.3172C18.2276 46.5455 18.4819 46.7006 18.765 46.7536L20.0586 46.9818C20.3405 47.0312 20.6306 46.9755 20.8748 46.825C21.119 46.6745 21.3007 46.4396 21.3861 46.1639L22.3465 43.3387C22.3904 43.2132 22.4728 43.1052 22.5817 43.0304C22.6906 42.9555 22.8204 42.9177 22.9521 42.9223H24.0536C24.1843 42.92 24.3124 42.9591 24.4198 43.0342C24.5273 43.1093 24.6086 43.2166 24.6524 43.3409L25.6094 46.1548C25.6835 46.3991 25.8332 46.613 26.0365 46.7651C26.2399 46.9172 26.4861 46.9995 26.7392 47C26.8066 47.0002 26.8739 46.994 26.9403 46.9818L28.2362 46.7536C28.5177 46.7015 28.7708 46.548 28.9487 46.3217C29.1265 46.0953 29.217 45.8115 29.2033 45.5229L29.1581 42.5391C29.1572 42.4076 29.1978 42.2793 29.274 42.1727C29.3501 42.0661 29.4579 41.9867 29.5818 41.946C30.0156 41.7989 30.3195 41.6802 30.5884 41.5764L30.6562 41.5491C31.0019 41.4282 31.168 41.565 31.2742 41.6985L33.1667 44.0515C33.3363 44.2843 33.5849 44.4458 33.865 44.5051C34.1452 44.5645 34.4371 44.5175 34.6851 44.3732L35.8228 43.7082C36.0717 43.5631 36.2589 43.3305 36.3487 43.0549C36.4385 42.7793 36.4247 42.48 36.3098 42.214L35.2658 39.4378C35.2198 39.3141 35.2134 39.1789 35.2477 39.0514C35.282 38.9239 35.3551 38.8104 35.4568 38.7272C35.7313 38.4991 36.0126 38.271 36.2928 38.0177C36.3897 37.9296 36.5119 37.8752 36.6417 37.8625C36.7714 37.8497 36.9018 37.8794 37.0136 37.947L39.5433 39.4754C39.7831 39.6332 40.0717 39.6971 40.3549 39.6551C40.638 39.6131 40.8963 39.4681 41.0809 39.2473L41.917 38.2322C42.1025 38.0114 42.2008 37.7293 42.193 37.44C42.1853 37.1506 42.0722 36.8742 41.8752 36.6639L39.9478 34.4203C39.8621 34.3194 39.8109 34.1934 39.8018 34.0609C39.7926 33.9284 39.826 33.7965 39.8969 33.6846C40.0901 33.3755 40.2743 33.0493 40.4415 32.7219C40.5044 32.6049 40.6022 32.5109 40.7211 32.4532C40.8399 32.3955 40.9737 32.3769 41.1035 32.4003L43.9823 32.9672C44.2613 33.0351 44.5554 32.997 44.8084 32.8601C45.0614 32.7231 45.2556 32.4969 45.3539 32.2246L45.8002 30.9836C45.9002 30.7121 45.898 30.4128 45.7938 30.1428C45.6897 29.8728 45.4909 29.6508 45.2353 29.5191L42.6593 28.074C42.5452 28.0088 42.4549 27.9083 42.4017 27.7873C42.3486 27.6663 42.3355 27.5313 42.3644 27.4022L42.3904 27.2596C42.4503 26.9402 42.5034 26.6391 42.5565 26.3174C42.5744 26.1868 42.6329 26.0653 42.7234 25.9703C42.8139 25.8752 42.9318 25.8115 43.0604 25.7882L45.964 25.316C46.2483 25.2811 46.5103 25.1428 46.701 24.927C46.8917 24.7112 46.998 24.4326 47 24.1435V22.8078ZM13.9633 35.5073C12.1806 34.0591 10.7432 32.2248 9.75736 30.1401C8.77153 28.0554 8.2625 25.7737 8.26793 23.4636C8.27335 21.1536 8.79309 18.8743 9.7887 16.7944C10.7843 14.7144 12.2303 12.8871 14.0198 11.4474L20.7986 23.4933L13.9633 35.5073ZM23.5 38.9108C21.6263 38.9126 19.7685 38.5626 18.0216 37.8786L24.8558 25.8715H38.5513C37.4204 33.2466 31.1025 38.9108 23.5 38.9108ZM24.8626 21.1288L18.0894 9.09547C19.8168 8.42901 21.6507 8.08803 23.5 8.08945C31.1025 8.08945 37.4204 13.7537 38.5513 21.1288H24.8626Z" fill="black"/>
</svg>
