<svg width="90" height="150" viewBox="0 0 90 150" fill="none" xmlns="http://www.w3.org/2000/svg">
<path d="M49.8436 2.46381H37.9985V142.429H49.8436V2.46381Z" fill="#B27214"/>
<path d="M49.8436 55.808H37.9985V78.417H49.8436V55.808Z" fill="#995C0D"/>
<path d="M49.8436 20.9788H37.9985V43.5878H49.8436V20.9788Z" fill="#995C0D"/>
<path d="M79.0284 36.3788H2.46484L10.972 25.074L2.46484 13.7692H79.0284L87.5355 25.074L79.0284 36.3788Z" fill="#F7B239"/>
<path d="M10.972 48.5798H87.5355L79.0284 59.8846L87.5355 71.1894H10.972L2.46484 59.8846L10.972 48.5798Z" fill="#F7B239"/>
<path d="M89.7406 47.4793C89.3231 46.6433 88.4696 46.1152 87.5355 46.1152H52.3085V38.8428H79.0281C79.802 38.8428 80.5316 38.4791 80.9971 37.8602L89.5045 26.5554C90.1648 25.6779 90.1648 24.4692 89.5043 23.5916L80.9969 12.2868C80.5316 11.6682 79.802 11.3042 79.0281 11.3042H52.3085V2.46432C52.3085 1.1034 51.2054 0 49.8442 0H38.0005C36.6393 0 35.5362 1.1034 35.5362 2.46432V11.3048H2.46482C1.53065 11.3048 0.677137 11.8329 0.259719 12.6688C-0.157699 13.5048 -0.066009 14.5044 0.495737 15.2509L7.88757 25.0739L0.495737 34.897C-0.065726 35.6435 -0.157133 36.6434 0.259719 37.479C0.677137 38.315 1.53065 38.8431 2.46482 38.8431H35.5362V46.1155H10.9714C10.1974 46.1155 9.46782 46.4791 9.00229 47.0981L0.495171 58.4029C-0.165057 59.2804 -0.165057 60.4891 0.495171 61.3667L9.00229 72.6715C9.46782 73.2901 10.1974 73.654 10.9714 73.654H35.5362V139.965H19.1264C17.7652 139.965 16.6621 141.069 16.6621 142.43C16.6621 143.79 17.7652 144.894 19.1264 144.894H38.0005H49.8442H70.8738C72.235 144.894 73.3382 143.79 73.3382 142.43C73.3382 141.069 72.235 139.965 70.8738 139.965H52.3085V73.6538H87.5355C88.4696 73.6538 89.3231 73.1257 89.7406 72.2897C90.158 71.4538 90.0663 70.4539 89.5043 69.7077L82.1124 59.8846L89.5045 50.0616C90.0663 49.315 90.158 48.3152 89.7406 47.4793ZM40.4651 4.92865H47.3804V11.3048H40.4651V4.92865ZM12.941 26.5554C13.6012 25.6779 13.6012 24.4692 12.941 23.5916L7.40337 16.2329H77.7987L84.4514 25.0734L77.7987 33.9139H7.40337L12.941 26.5554ZM40.4651 38.8431H47.3804V46.1155H40.4651V38.8431ZM47.3801 139.965H40.4649V73.6538H47.3801V139.965ZM77.0593 58.4029C76.399 59.2804 76.399 60.4891 77.0593 61.3667L82.5969 68.7254H12.2013L5.5489 59.8849L12.2013 51.0444H82.5969L77.0593 58.4029Z" fill="#333333"/>
<path d="M19.1254 142.43H70.8756" stroke="#333333" stroke-width="15" stroke-miterlimit="10" stroke-linecap="round" stroke-linejoin="round"/>
</svg>
