<svg width="27" height="27" viewBox="0 0 27 27" fill="none" xmlns="http://www.w3.org/2000/svg">
<path d="M12.3181 8.77273C12.3181 8.12004 12.8472 7.59091 13.4999 7.59091C14.1526 7.59091 14.6817 8.12002 14.6817 8.77273V12.3182H18.2272C18.8799 12.3182 19.409 12.8473 19.409 13.5C19.409 14.1527 18.8799 14.6818 18.2272 14.6818H14.6817V18.2273C14.6817 18.88 14.1526 19.4091 13.4999 19.4091C12.8472 19.4091 12.3181 18.88 12.3181 18.2273V14.6818H8.77264C8.11994 14.6818 7.59082 14.1527 7.59082 13.5C7.59082 12.8473 8.11993 12.3182 8.77264 12.3182H12.3181V8.77273Z" fill="white" stroke="white"/>
<path fill-rule="evenodd" clip-rule="evenodd" d="M26.5 4.04545C26.5 2.08736 24.9127 0.5 22.9545 0.5H4.04545C2.08736 0.5 0.5 2.08736 0.5 4.04545V22.9545C0.5 24.9127 2.08736 26.5 4.04545 26.5H22.9545C24.9127 26.5 26.5 24.9127 26.5 22.9545V4.04545ZM24.1364 4.04545C24.1364 3.39276 23.6073 2.86364 22.9545 2.86364H4.04545C3.39276 2.86364 2.86364 3.39276 2.86364 4.04545V22.9545C2.86364 23.6073 3.39276 24.1364 4.04545 24.1364H22.9545C23.6073 24.1364 24.1364 23.6073 24.1364 22.9545V4.04545Z" fill="white" stroke="white"/>
</svg>
